<?xml version="1.0" encoding="UTF-8" standalone="no"?>
<svg
   width="1842.5074"
   zoomAndPan="magnify"
   viewBox="0 0 1381.8806 399.71685"
   height="532.95581"
   preserveAspectRatio="xMidYMid"
   version="1.0"
   id="svg1756"
   sodipodi:docname="ai-on-openshift-title.svg"
   inkscape:version="1.2.2 (b0a8486541, 2022-12-01)"
   xmlns:inkscape="http://www.inkscape.org/namespaces/inkscape"
   xmlns:sodipodi="http://sodipodi.sourceforge.net/DTD/sodipodi-0.dtd"
   xmlns="http://www.w3.org/2000/svg"
   xmlns:svg="http://www.w3.org/2000/svg">
  <sodipodi:namedview
     id="namedview1758"
     pagecolor="#ffffff"
     bordercolor="#666666"
     borderopacity="1.0"
     inkscape:showpageshadow="2"
     inkscape:pageopacity="0.0"
     inkscape:pagecheckerboard="0"
     inkscape:deskcolor="#d1d1d1"
     showgrid="false"
     inkscape:zoom="0.69166667"
     inkscape:cx="910.84337"
     inkscape:cy="440.96386"
     inkscape:window-width="1920"
     inkscape:window-height="1017"
     inkscape:window-x="0"
     inkscape:window-y="32"
     inkscape:window-maximized="1"
     inkscape:current-layer="svg1756" />
  <defs
     id="defs1424" />
  <g
     fill="#ff00ff"
     fill-opacity="1"
     id="g1432"
     transform="translate(-36.711498,-74.07909)">
    <g
       transform="translate(182.63078,289.88715)"
       id="g1430">
      <g
         id="g1428">
        <path
           d="M 257.97266,0 157.90625,-214.21094 H 56.917969 V -165.25 H 79.871094 L 3.058594,0 H 56.613281 L 73.75,-36.722656 H 186.97656 L 204.42187,0 Z M 164.02734,-85.683594 H 96.394531 l 32.746089,-80.484376 h 2.14063 z m 0,0"
           id="path1426" />
      </g>
    </g>
  </g>
  <g
     fill="#ff00ff"
     fill-opacity="1"
     id="g1440"
     transform="translate(-36.711498,-74.07909)">
    <g
       transform="translate(476.39317,289.88715)"
       id="g1438">
      <g
         id="g1436">
        <path
           d="M 64.265625,0 V -214.21094 H 15.300781 V 0 Z m 0,0"
           id="path1434" />
      </g>
    </g>
  </g>
  <g
     fill="#ff00ff"
     fill-opacity="1"
     id="g1446"
     transform="translate(-36.711498,-74.07909)">
    <g
       transform="translate(588.69761,289.88715)"
       id="g1444">
      <g
         id="g1442" />
    </g>
  </g>
  <g
     fill="#ff00ff"
     fill-opacity="1"
     id="g1454"
     transform="translate(-36.711498,-74.07909)">
    <g
       transform="translate(743.84203,289.88715)"
       id="g1452">
      <g
         id="g1450">
        <path
           d="m 208.09375,0 30.60156,-30.601562 V -183.60937 l -30.60156,-30.60157 H 45.902344 l -30.601563,30.60157 V -30.601562 L 45.902344,0 Z M 189.73047,-48.964844 H 64.265625 V -165.25 H 189.73047 Z m 0,0"
           id="path1448" />
      </g>
    </g>
  </g>
  <g
     fill="#ff00ff"
     fill-opacity="1"
     id="g1462"
     transform="translate(-36.711498,-74.07909)">
    <g
       transform="translate(1030.5664,289.88715)"
       id="g1460">
      <g
         id="g1458">
        <path
           d="M 217.27344,0 V -214.21094 H 168.30859 V -82.625 L 73.445312,-214.21094 H 1.53125 V -165.25 H 24.480469 V 0 H 73.445312 V -131.28125 L 168.30859,0 Z m 0,0"
           id="path1456" />
      </g>
    </g>
  </g>
  <g
     fill="#00ffff"
     fill-opacity="1"
     id="g1470"
     transform="translate(-36.711498,-74.07909)">
    <g
       transform="translate(171.26661,288.29003)"
       id="g1468">
      <g
         id="g1466">
        <path
           d="M 257.97266,0 157.90625,-214.21094 H 56.917969 V -165.25 H 79.871094 L 3.058594,0 H 56.613281 L 73.75,-36.722656 H 186.97656 L 204.42187,0 Z M 164.02734,-85.683594 H 96.394531 l 32.746089,-80.484376 h 2.14063 z m 0,0"
           id="path1464" />
      </g>
    </g>
  </g>
  <g
     fill="#00ffff"
     fill-opacity="1"
     id="g1478"
     transform="translate(-36.711498,-74.07909)">
    <g
       transform="translate(465.029,288.29003)"
       id="g1476">
      <g
         id="g1474">
        <path
           d="M 64.265625,0 V -214.21094 H 15.300781 V 0 Z m 0,0"
           id="path1472" />
      </g>
    </g>
  </g>
  <g
     fill="#00ffff"
     fill-opacity="1"
     id="g1484"
     transform="translate(-36.711498,-74.07909)">
    <g
       transform="translate(577.33344,288.29003)"
       id="g1482">
      <g
         id="g1480" />
    </g>
  </g>
  <g
     fill="#00ffff"
     fill-opacity="1"
     id="g1492"
     transform="translate(-36.711498,-74.07909)">
    <g
       transform="translate(732.47786,288.29003)"
       id="g1490">
      <g
         id="g1488">
        <path
           d="m 208.09375,0 30.60156,-30.601562 V -183.60937 l -30.60156,-30.60157 H 45.902344 l -30.601563,30.60157 V -30.601562 L 45.902344,0 Z M 189.73047,-48.964844 H 64.265625 V -165.25 H 189.73047 Z m 0,0"
           id="path1486" />
      </g>
    </g>
  </g>
  <g
     fill="#00ffff"
     fill-opacity="1"
     id="g1500"
     transform="translate(-36.711498,-74.07909)">
    <g
       transform="translate(1019.2022,288.29003)"
       id="g1498">
      <g
         id="g1496">
        <path
           d="M 217.27344,0 V -214.21094 H 168.30859 V -82.625 L 73.445312,-214.21094 H 1.53125 V -165.25 H 24.480469 V 0 H 73.445312 V -131.28125 L 168.30859,0 Z m 0,0"
           id="path1494" />
      </g>
    </g>
  </g>
  <g
     fill="#0a0621"
     fill-opacity="1"
     id="g1508"
     transform="translate(-36.711498,-74.07909)">
    <g
       transform="translate(176.9487,289.08859)"
       id="g1506">
      <g
         id="g1504">
        <path
           d="M 257.97266,0 157.90625,-214.21094 H 56.917969 V -165.25 H 79.871094 L 3.058594,0 H 56.613281 L 73.75,-36.722656 H 186.97656 L 204.42187,0 Z M 164.02734,-85.683594 H 96.394531 l 32.746089,-80.484376 h 2.14063 z m 0,0"
           id="path1502" />
      </g>
    </g>
  </g>
  <g
     fill="#0a0621"
     fill-opacity="1"
     id="g1516"
     transform="translate(-36.711498,-74.07909)">
    <g
       transform="translate(470.71109,289.08859)"
       id="g1514">
      <g
         id="g1512">
        <path
           d="M 64.265625,0 V -214.21094 H 15.300781 V 0 Z m 0,0"
           id="path1510" />
      </g>
    </g>
  </g>
  <g
     fill="#0a0621"
     fill-opacity="1"
     id="g1522"
     transform="translate(-36.711498,-74.07909)">
    <g
       transform="translate(583.01553,289.08859)"
       id="g1520">
      <g
         id="g1518" />
    </g>
  </g>
  <g
     fill="#0a0621"
     fill-opacity="1"
     id="g1530"
     transform="translate(-36.711498,-74.07909)">
    <g
       transform="translate(738.15994,289.08859)"
       id="g1528">
      <g
         id="g1526">
        <path
           d="m 208.09375,0 30.60156,-30.601562 V -183.60937 l -30.60156,-30.60157 H 45.902344 l -30.601563,30.60157 V -30.601562 L 45.902344,0 Z M 189.73047,-48.964844 H 64.265625 V -165.25 H 189.73047 Z m 0,0"
           id="path1524" />
      </g>
    </g>
  </g>
  <g
     fill="#0a0621"
     fill-opacity="1"
     id="g1538"
     transform="translate(-36.711498,-74.07909)">
    <g
       transform="translate(1024.8843,289.08859)"
       id="g1536">
      <g
         id="g1534">
        <path
           d="M 217.27344,0 V -214.21094 H 168.30859 V -82.625 L 73.445312,-214.21094 H 1.53125 V -165.25 H 24.480469 V 0 H 73.445312 V -131.28125 L 168.30859,0 Z m 0,0"
           id="path1532" />
      </g>
    </g>
  </g>
  <g
     fill="#ff00ff"
     fill-opacity="1"
     id="g1546"
     transform="translate(-36.711498,-74.07909)">
    <g
       transform="translate(38.548323,473.79593)"
       id="g1544">
      <g
         id="g1542">
        <path
           d="m 129.5625,0 19.05469,-19.054688 V -114.32031 L 129.5625,-133.375 H 28.582031 l -19.054687,19.05469 v 95.265622 L 28.582031,0 Z M 118.13281,-30.484375 H 40.011719 v -72.406255 h 78.121091 z m 0,0"
           id="path1540" />
      </g>
    </g>
  </g>
  <g
     fill="#ff00ff"
     fill-opacity="1"
     id="g1554"
     transform="translate(-36.711498,-74.07909)">
    <g
       transform="translate(217.07944,473.79593)"
       id="g1552">
      <g
         id="g1550">
        <path
           d="m 116.22656,-32.390625 19.05469,-19.054687 V -114.32031 L 116.22656,-133.375 H 0.953125 v 30.48437 H 104.79297 V -62.875 H 45.730469 V -93.363281 H 15.242188 V 0 h 30.488281 v -32.390625 z m 0,0"
           id="path1548" />
      </g>
    </g>
  </g>
  <g
     fill="#ff00ff"
     fill-opacity="1"
     id="g1562"
     transform="translate(-36.711498,-74.07909)">
    <g
       transform="translate(378.46245,473.79593)"
       id="g1560">
      <g
         id="g1558">
        <path
           d="M 139.08984,0 V -30.484375 H 40.011719 v -72.406255 h 73.355471 v 22.867192 H 49.539062 v 30.484376 h 75.261718 l 19.05469,-19.054688 v -45.72656 L 124.80078,-133.375 H 28.582031 l -19.054687,19.05469 v 95.265622 L 28.582031,0 Z m 0,0"
           id="path1556" />
      </g>
    </g>
  </g>
  <g
     fill="#ff00ff"
     fill-opacity="1"
     id="g1570"
     transform="translate(-36.711498,-74.07909)">
    <g
       transform="translate(552.23018,473.79593)"
       id="g1568">
      <g
         id="g1566">
        <path
           d="m 135.28125,0 v -133.375 h -30.48828 v 81.929688 L 45.730469,-133.375 H 0.953125 v 30.48437 H 15.242188 V 0 H 45.730469 V -81.738281 L 104.79297,0 Z m 0,0"
           id="path1564" />
      </g>
    </g>
  </g>
  <g
     fill="#ff00ff"
     fill-opacity="1"
     id="g1578"
     transform="translate(-36.711498,-74.07909)">
    <g
       transform="translate(717.4239,473.79593)"
       id="g1576">
      <g
         id="g1574">
        <path
           d="m 117.17969,0 19.05468,-19.054688 V -62.875 L 117.17969,-81.929688 H 40.011719 V -102.89063 H 136.23437 V -133.375 H 28.582031 L 9.527344,-114.32031 V -70.5 l 19.054687,19.054688 h 77.164059 v 20.960937 H 9.527344 V 0 Z m 0,0"
           id="path1572" />
      </g>
    </g>
  </g>
  <g
     fill="#ff00ff"
     fill-opacity="1"
     id="g1586"
     transform="translate(-36.711498,-74.07909)">
    <g
       transform="translate(883.57029,473.79593)"
       id="g1584">
      <g
         id="g1582">
        <path
           d="m 144.80859,0 v -133.375 h -30.48828 v 51.445312 H 45.730469 V -133.375 H 0.953125 v 30.48437 H 15.242188 V 0 H 45.730469 V -51.445312 H 114.32031 V 0 Z m 0,0"
           id="path1580" />
      </g>
    </g>
  </g>
  <g
     fill="#ff00ff"
     fill-opacity="1"
     id="g1594"
     transform="translate(-36.711498,-74.07909)">
    <g
       transform="translate(1058.2907,473.79593)"
       id="g1592">
      <g
         id="g1590">
        <path
           d="M 40.011719,0 V -133.375 H 9.527344 V 0 Z m 0,0"
           id="path1588" />
      </g>
    </g>
  </g>
  <g
     fill="#ff00ff"
     fill-opacity="1"
     id="g1602"
     transform="translate(-36.711498,-74.07909)">
    <g
       transform="translate(1128.2171,473.79593)"
       id="g1600">
      <g
         id="g1598">
        <path
           d="M 112.41406,-51.445312 V -81.929688 H 45.730469 V -102.89063 H 131.46875 V -133.375 H 0.953125 v 30.48437 H 15.242188 V 0 h 30.488281 v -51.445312 z m 0,0"
           id="path1596" />
      </g>
    </g>
  </g>
  <g
     fill="#ff00ff"
     fill-opacity="1"
     id="g1610"
     transform="translate(-36.711498,-74.07909)">
    <g
       transform="translate(1281.9788,473.79593)"
       id="g1608">
      <g
         id="g1606">
        <path
           d="M 84.027344,0 V -102.89063 H 136.61328 V -133.375 H 0.953125 v 30.48437 H 53.539062 V 0 Z m 0,0"
           id="path1604" />
      </g>
    </g>
  </g>
  <g
     fill="#00ffff"
     fill-opacity="1"
     id="g1618"
     transform="translate(-36.711498,-74.07909)">
    <g
       transform="translate(27.184154,472.19881)"
       id="g1616">
      <g
         id="g1614">
        <path
           d="m 129.5625,0 19.05469,-19.054688 V -114.32031 L 129.5625,-133.375 H 28.582031 l -19.054687,19.05469 v 95.265622 L 28.582031,0 Z M 118.13281,-30.484375 H 40.011719 v -72.406255 h 78.121091 z m 0,0"
           id="path1612" />
      </g>
    </g>
  </g>
  <g
     fill="#00ffff"
     fill-opacity="1"
     id="g1626"
     transform="translate(-36.711498,-74.07909)">
    <g
       transform="translate(205.71527,472.19881)"
       id="g1624">
      <g
         id="g1622">
        <path
           d="m 116.22656,-32.390625 19.05469,-19.054687 V -114.32031 L 116.22656,-133.375 H 0.953125 v 30.48437 H 104.79297 V -62.875 H 45.730469 V -93.363281 H 15.242188 V 0 h 30.488281 v -32.390625 z m 0,0"
           id="path1620" />
      </g>
    </g>
  </g>
  <g
     fill="#00ffff"
     fill-opacity="1"
     id="g1634"
     transform="translate(-36.711498,-74.07909)">
    <g
       transform="translate(367.09828,472.19881)"
       id="g1632">
      <g
         id="g1630">
        <path
           d="M 139.08984,0 V -30.484375 H 40.011719 v -72.406255 h 73.355471 v 22.867192 H 49.539062 v 30.484376 h 75.261718 l 19.05469,-19.054688 v -45.72656 L 124.80078,-133.375 H 28.582031 l -19.054687,19.05469 v 95.265622 L 28.582031,0 Z m 0,0"
           id="path1628" />
      </g>
    </g>
  </g>
  <g
     fill="#00ffff"
     fill-opacity="1"
     id="g1642"
     transform="translate(-36.711498,-74.07909)">
    <g
       transform="translate(540.86601,472.19881)"
       id="g1640">
      <g
         id="g1638">
        <path
           d="m 135.28125,0 v -133.375 h -30.48828 v 81.929688 L 45.730469,-133.375 H 0.953125 v 30.48437 H 15.242188 V 0 H 45.730469 V -81.738281 L 104.79297,0 Z m 0,0"
           id="path1636" />
      </g>
    </g>
  </g>
  <g
     fill="#00ffff"
     fill-opacity="1"
     id="g1650"
     transform="translate(-36.711498,-74.07909)">
    <g
       transform="translate(706.05973,472.19881)"
       id="g1648">
      <g
         id="g1646">
        <path
           d="m 117.17969,0 19.05468,-19.054688 V -62.875 L 117.17969,-81.929688 H 40.011719 V -102.89063 H 136.23437 V -133.375 H 28.582031 L 9.527344,-114.32031 V -70.5 l 19.054687,19.054688 h 77.164059 v 20.960937 H 9.527344 V 0 Z m 0,0"
           id="path1644" />
      </g>
    </g>
  </g>
  <g
     fill="#00ffff"
     fill-opacity="1"
     id="g1658"
     transform="translate(-36.711498,-74.07909)">
    <g
       transform="translate(872.20612,472.19881)"
       id="g1656">
      <g
         id="g1654">
        <path
           d="m 144.80859,0 v -133.375 h -30.48828 v 51.445312 H 45.730469 V -133.375 H 0.953125 v 30.48437 H 15.242188 V 0 H 45.730469 V -51.445312 H 114.32031 V 0 Z m 0,0"
           id="path1652" />
      </g>
    </g>
  </g>
  <g
     fill="#00ffff"
     fill-opacity="1"
     id="g1666"
     transform="translate(-36.711498,-74.07909)">
    <g
       transform="translate(1046.9265,472.19881)"
       id="g1664">
      <g
         id="g1662">
        <path
           d="M 40.011719,0 V -133.375 H 9.527344 V 0 Z m 0,0"
           id="path1660" />
      </g>
    </g>
  </g>
  <g
     fill="#00ffff"
     fill-opacity="1"
     id="g1674"
     transform="translate(-36.711498,-74.07909)">
    <g
       transform="translate(1116.8529,472.19881)"
       id="g1672">
      <g
         id="g1670">
        <path
           d="M 112.41406,-51.445312 V -81.929688 H 45.730469 V -102.89063 H 131.46875 V -133.375 H 0.953125 v 30.48437 H 15.242188 V 0 h 30.488281 v -51.445312 z m 0,0"
           id="path1668" />
      </g>
    </g>
  </g>
  <g
     fill="#00ffff"
     fill-opacity="1"
     id="g1682"
     transform="translate(-36.711498,-74.07909)">
    <g
       transform="translate(1270.6146,472.19881)"
       id="g1680">
      <g
         id="g1678">
        <path
           d="M 84.027344,0 V -102.89063 H 136.61328 V -133.375 H 0.953125 v 30.48437 H 53.539062 V 0 Z m 0,0"
           id="path1676" />
      </g>
    </g>
  </g>
  <g
     fill="#0a0621"
     fill-opacity="1"
     id="g1690"
     transform="translate(-36.711498,-74.07909)">
    <g
       transform="translate(32.866239,472.99737)"
       id="g1688">
      <g
         id="g1686">
        <path
           d="m 129.5625,0 19.05469,-19.054688 V -114.32031 L 129.5625,-133.375 H 28.582031 l -19.054687,19.05469 v 95.265622 L 28.582031,0 Z M 118.13281,-30.484375 H 40.011719 v -72.406255 h 78.121091 z m 0,0"
           id="path1684" />
      </g>
    </g>
  </g>
  <g
     fill="#0a0621"
     fill-opacity="1"
     id="g1698"
     transform="translate(-36.711498,-74.07909)">
    <g
       transform="translate(211.39735,472.99737)"
       id="g1696">
      <g
         id="g1694">
        <path
           d="m 116.22656,-32.390625 19.05469,-19.054687 V -114.32031 L 116.22656,-133.375 H 0.953125 v 30.48437 H 104.79297 V -62.875 H 45.730469 V -93.363281 H 15.242188 V 0 h 30.488281 v -32.390625 z m 0,0"
           id="path1692" />
      </g>
    </g>
  </g>
  <g
     fill="#0a0621"
     fill-opacity="1"
     id="g1706"
     transform="translate(-36.711498,-74.07909)">
    <g
       transform="translate(372.78036,472.99737)"
       id="g1704">
      <g
         id="g1702">
        <path
           d="M 139.08984,0 V -30.484375 H 40.011719 v -72.406255 h 73.355471 v 22.867192 H 49.539062 v 30.484376 h 75.261718 l 19.05469,-19.054688 v -45.72656 L 124.80078,-133.375 H 28.582031 l -19.054687,19.05469 v 95.265622 L 28.582031,0 Z m 0,0"
           id="path1700" />
      </g>
    </g>
  </g>
  <g
     fill="#0a0621"
     fill-opacity="1"
     id="g1714"
     transform="translate(-36.711498,-74.07909)">
    <g
       transform="translate(546.54809,472.99737)"
       id="g1712">
      <g
         id="g1710">
        <path
           d="m 135.28125,0 v -133.375 h -30.48828 v 81.929688 L 45.730469,-133.375 H 0.953125 v 30.48437 H 15.242188 V 0 H 45.730469 V -81.738281 L 104.79297,0 Z m 0,0"
           id="path1708" />
      </g>
    </g>
  </g>
  <g
     fill="#0a0621"
     fill-opacity="1"
     id="g1722"
     transform="translate(-36.711498,-74.07909)">
    <g
       transform="translate(711.74181,472.99737)"
       id="g1720">
      <g
         id="g1718">
        <path
           d="m 117.17969,0 19.05468,-19.054688 V -62.875 L 117.17969,-81.929688 H 40.011719 V -102.89063 H 136.23437 V -133.375 H 28.582031 L 9.527344,-114.32031 V -70.5 l 19.054687,19.054688 h 77.164059 v 20.960937 H 9.527344 V 0 Z m 0,0"
           id="path1716" />
      </g>
    </g>
  </g>
  <g
     fill="#0a0621"
     fill-opacity="1"
     id="g1730"
     transform="translate(-36.711498,-74.07909)">
    <g
       transform="translate(877.88821,472.99737)"
       id="g1728">
      <g
         id="g1726">
        <path
           d="m 144.80859,0 v -133.375 h -30.48828 v 51.445312 H 45.730469 V -133.375 H 0.953125 v 30.48437 H 15.242188 V 0 H 45.730469 V -51.445312 H 114.32031 V 0 Z m 0,0"
           id="path1724" />
      </g>
    </g>
  </g>
  <g
     fill="#0a0621"
     fill-opacity="1"
     id="g1738"
     transform="translate(-36.711498,-74.07909)">
    <g
       transform="translate(1052.6086,472.99737)"
       id="g1736">
      <g
         id="g1734">
        <path
           d="M 40.011719,0 V -133.375 H 9.527344 V 0 Z m 0,0"
           id="path1732" />
      </g>
    </g>
  </g>
  <g
     fill="#0a0621"
     fill-opacity="1"
     id="g1746"
     transform="translate(-36.711498,-74.07909)">
    <g
       transform="translate(1122.535,472.99737)"
       id="g1744">
      <g
         id="g1742">
        <path
           d="M 112.41406,-51.445312 V -81.929688 H 45.730469 V -102.89063 H 131.46875 V -133.375 H 0.953125 v 30.48437 H 15.242188 V 0 h 30.488281 v -51.445312 z m 0,0"
           id="path1740" />
      </g>
    </g>
  </g>
  <g
     fill="#0a0621"
     fill-opacity="1"
     id="g1754"
     transform="translate(-36.711498,-74.07909)">
    <g
       transform="translate(1276.2967,472.99737)"
       id="g1752">
      <g
         id="g1750">
        <path
           d="M 84.027344,0 V -102.89063 H 136.61328 V -133.375 H 0.953125 v 30.48437 H 53.539062 V 0 Z m 0,0"
           id="path1748" />
      </g>
    </g>
  </g>
</svg>
