<?xml version="1.0" encoding="UTF-8" standalone="no"?>
<!-- Uploaded to: SVG Repo, www.svgrepo.com, Generator: SVG Repo Mixer Tools -->

<svg
   width="24"
   height="24"
   viewBox="0 0 24 24"
   id="Layer_1"
   data-name="Layer 1"
   version="1.1"
   sodipodi:docname="construction-tools-svgrepo-com.svg"
   inkscape:version="1.2.2 (b0a8486541, 2022-12-01)"
   xmlns:inkscape="http://www.inkscape.org/namespaces/inkscape"
   xmlns:sodipodi="http://sodipodi.sourceforge.net/DTD/sodipodi-0.dtd"
   xmlns="http://www.w3.org/2000/svg"
   xmlns:svg="http://www.w3.org/2000/svg">
  <sodipodi:namedview
     id="namedview348"
     pagecolor="#ffffff"
     bordercolor="#666666"
     borderopacity="1.0"
     inkscape:showpageshadow="2"
     inkscape:pageopacity="0.0"
     inkscape:pagecheckerboard="0"
     inkscape:deskcolor="#d1d1d1"
     showgrid="false"
     inkscape:zoom="16.16"
     inkscape:cx="4.9504951"
     inkscape:cy="16.027228"
     inkscape:window-width="1920"
     inkscape:window-height="1017"
     inkscape:window-x="0"
     inkscape:window-y="32"
     inkscape:window-maximized="1"
     inkscape:current-layer="Layer_1" />
  <defs
     id="defs335">
    <style
       id="style333">.cls-1{fill:none;stroke:#020202;stroke-miterlimit:10;stroke-width:1.91px;}</style>
  </defs>
  <rect
     class="cls-1"
     x="-5.6564951"
     y="14.854859"
     width="11.313831"
     height="4.2426867"
     transform="rotate(-45.000003)"
     id="rect337" />
  <circle
     class="cls-1"
     cx="18.99782"
     cy="5.0021806"
     id="circle339"
     r="4.0017443" />
  <circle
     class="cls-1"
     cx="5.0021806"
     cy="18.99782"
     id="circle341"
     r="4.0017443" />
  <path
     class="cls-1"
     d="M 11.999992,9.0039256 9.0039239,11.999994 5.997378,9.0039256 H 3.9965059 A 3.0065459,3.006546 0 0 1 1.000436,5.9973796 V 3.9965075 L 1.4194666,4.4155383 A 2.1999115,2.1999118 0 0 0 4.3422061,4.6669568 2.095154,2.095154 0 0 0 4.4993428,1.5242257 L 3.9965059,1.0004372 H 5.997378 a 3.0065459,3.006546 0 0 1 3.0065459,2.9960703 v 2.0008721 z"
     id="path343" />
  <path
     class="cls-1"
     d="m 20.003481,14.996065 a 3.0065459,3.006546 0 0 1 2.996069,3.006545 v 2.000872 l -0.419027,-0.419031 a 2.1999115,2.1999118 0 0 0 -2.922738,-0.251418 2.095154,2.095154 0 0 0 -0.157137,3.142731 l 0.502838,0.502837 h -2.000878 a 3.0065459,3.006546 0 0 1 -3.006546,-2.99607 V 18.00261 l -2.99607,-3.006545 2.99607,-2.996071 3.006546,2.996071 z"
     id="path345" />
</svg>
